<mxfile host="app.diagrams.net" modified="2024-04-02T10:23:01.861Z" agent="Mozilla/5.0 (Macintosh; Intel Mac OS X 10_15_7) AppleWebKit/537.36 (KHTML, like Gecko) Chrome/123.0.0.0 Safari/537.36" etag="5wI5guT2grVaCkAhzXYa" version="24.0.1" type="device">
  <diagram name="PaginÄƒ-1" id="EvH7-jrfrWkqQBV0Ol-A">
    <mxGraphModel dx="1250" dy="578" grid="1" gridSize="10" guides="1" tooltips="1" connect="1" arrows="1" fold="1" page="1" pageScale="1" pageWidth="827" pageHeight="1169" math="0" shadow="0">
      <root>
        <mxCell id="0" />
        <mxCell id="1" parent="0" />
        <mxCell id="Qzgr8ih8Mk0pZuw_QH9I-1" value="Administrator" style="shape=umlActor;verticalLabelPosition=bottom;verticalAlign=top;html=1;outlineConnect=0;" vertex="1" parent="1">
          <mxGeometry x="240" y="140" width="30" height="60" as="geometry" />
        </mxCell>
        <mxCell id="Qzgr8ih8Mk0pZuw_QH9I-3" value="" style="endArrow=classic;html=1;rounded=0;" edge="1" parent="1" source="Qzgr8ih8Mk0pZuw_QH9I-1">
          <mxGeometry width="50" height="50" relative="1" as="geometry">
            <mxPoint x="390" y="330" as="sourcePoint" />
            <mxPoint x="380" y="170" as="targetPoint" />
            <Array as="points">
              <mxPoint x="330" y="170" />
            </Array>
          </mxGeometry>
        </mxCell>
        <mxCell id="Qzgr8ih8Mk0pZuw_QH9I-15" style="edgeStyle=orthogonalEdgeStyle;rounded=0;orthogonalLoop=1;jettySize=auto;html=1;" edge="1" parent="1" source="Qzgr8ih8Mk0pZuw_QH9I-4" target="Qzgr8ih8Mk0pZuw_QH9I-13">
          <mxGeometry relative="1" as="geometry">
            <mxPoint x="570" y="300" as="targetPoint" />
          </mxGeometry>
        </mxCell>
        <mxCell id="Qzgr8ih8Mk0pZuw_QH9I-19" style="edgeStyle=orthogonalEdgeStyle;rounded=0;orthogonalLoop=1;jettySize=auto;html=1;" edge="1" parent="1" source="Qzgr8ih8Mk0pZuw_QH9I-4" target="Qzgr8ih8Mk0pZuw_QH9I-20">
          <mxGeometry relative="1" as="geometry">
            <mxPoint x="440" y="70" as="targetPoint" />
          </mxGeometry>
        </mxCell>
        <mxCell id="Qzgr8ih8Mk0pZuw_QH9I-4" value="Authentication" style="ellipse;whiteSpace=wrap;html=1;" vertex="1" parent="1">
          <mxGeometry x="380" y="130" width="120" height="80" as="geometry" />
        </mxCell>
        <mxCell id="Qzgr8ih8Mk0pZuw_QH9I-5" value="User" style="shape=umlActor;verticalLabelPosition=bottom;verticalAlign=top;html=1;outlineConnect=0;" vertex="1" parent="1">
          <mxGeometry x="240" y="260" width="30" height="60" as="geometry" />
        </mxCell>
        <mxCell id="Qzgr8ih8Mk0pZuw_QH9I-17" style="edgeStyle=orthogonalEdgeStyle;rounded=0;orthogonalLoop=1;jettySize=auto;html=1;" edge="1" parent="1" source="Qzgr8ih8Mk0pZuw_QH9I-10" target="Qzgr8ih8Mk0pZuw_QH9I-14">
          <mxGeometry relative="1" as="geometry" />
        </mxCell>
        <mxCell id="Qzgr8ih8Mk0pZuw_QH9I-10" value="Authentication" style="ellipse;whiteSpace=wrap;html=1;" vertex="1" parent="1">
          <mxGeometry x="380" y="250" width="130" height="80" as="geometry" />
        </mxCell>
        <mxCell id="Qzgr8ih8Mk0pZuw_QH9I-11" style="edgeStyle=orthogonalEdgeStyle;rounded=0;orthogonalLoop=1;jettySize=auto;html=1;" edge="1" parent="1" source="Qzgr8ih8Mk0pZuw_QH9I-5">
          <mxGeometry relative="1" as="geometry">
            <mxPoint x="380" y="290" as="targetPoint" />
          </mxGeometry>
        </mxCell>
        <mxCell id="Qzgr8ih8Mk0pZuw_QH9I-12" value="" style="endArrow=classic;html=1;rounded=0;" edge="1" parent="1">
          <mxGeometry width="50" height="50" relative="1" as="geometry">
            <mxPoint x="500" y="170" as="sourcePoint" />
            <mxPoint x="610" y="170" as="targetPoint" />
          </mxGeometry>
        </mxCell>
        <mxCell id="Qzgr8ih8Mk0pZuw_QH9I-13" value="CRUD operations" style="ellipse;whiteSpace=wrap;html=1;" vertex="1" parent="1">
          <mxGeometry x="610" y="130" width="120" height="80" as="geometry" />
        </mxCell>
        <mxCell id="Qzgr8ih8Mk0pZuw_QH9I-14" value="Play Game" style="ellipse;whiteSpace=wrap;html=1;" vertex="1" parent="1">
          <mxGeometry x="650" y="280" width="120" height="80" as="geometry" />
        </mxCell>
        <mxCell id="Qzgr8ih8Mk0pZuw_QH9I-16" value="" style="endArrow=classic;html=1;rounded=0;entryX=0.058;entryY=0.263;entryDx=0;entryDy=0;entryPerimeter=0;" edge="1" parent="1" source="Qzgr8ih8Mk0pZuw_QH9I-4" target="Qzgr8ih8Mk0pZuw_QH9I-14">
          <mxGeometry width="50" height="50" relative="1" as="geometry">
            <mxPoint x="690" y="350" as="sourcePoint" />
            <mxPoint x="740" y="300" as="targetPoint" />
          </mxGeometry>
        </mxCell>
        <mxCell id="Qzgr8ih8Mk0pZuw_QH9I-20" value="See score" style="ellipse;whiteSpace=wrap;html=1;" vertex="1" parent="1">
          <mxGeometry x="500" width="120" height="80" as="geometry" />
        </mxCell>
        <mxCell id="Qzgr8ih8Mk0pZuw_QH9I-21" style="edgeStyle=orthogonalEdgeStyle;rounded=0;orthogonalLoop=1;jettySize=auto;html=1;entryX=0.583;entryY=0.875;entryDx=0;entryDy=0;entryPerimeter=0;" edge="1" parent="1" source="Qzgr8ih8Mk0pZuw_QH9I-10" target="Qzgr8ih8Mk0pZuw_QH9I-20">
          <mxGeometry relative="1" as="geometry">
            <Array as="points">
              <mxPoint x="550" y="290" />
              <mxPoint x="550" y="165" />
              <mxPoint x="570" y="165" />
            </Array>
          </mxGeometry>
        </mxCell>
      </root>
    </mxGraphModel>
  </diagram>
</mxfile>
